#Comment line ignore any data following # character 
#Hierarchical Translation and Rotation (.htr) file 
[Header]	
#Header keywords are followed by a single value 
FileType HTR		#Single word string
DataType HTRS		#Translation followed by rotation and scale data
FileVersion 1		#integer
NumSegments 64		#integer
NumFrames 3		#integer
DataFrameRate 30		#integer, data frame rate in this file
EulerRotationOrder ZYX
CalibrationUnits mm
RotationUnits Degrees
GlobalAxisofGravity Y
BoneLengthAxis Y
ScaleFactor 1.00
[SegmentNames&Hierarchy]
#CHILD	PARENT
Pinger_Root GLOBAL
Pelvis Pinger_Root
L_Hip Pelvis
R_Hip Pelvis
Rear_Leg01 Pelvis
Spine1 Pelvis
L_Leg01 L_Hip
L_Leg02 L_Leg01
L_Leg03 L_Leg02
L_Foot L_Leg03
L_Toe1_01 L_Foot
L_Toe2_01 L_Foot
L_Toe3_01 L_Foot
planeAlignerLeft L_Foot
L_Toe1_02 L_Toe1_01
L_Toe1_03 L_Toe1_02
L_Toe2_02 L_Toe2_01
L_Toe2_03 L_Toe2_02
L_Toe3_02 L_Toe3_01
L_Toe3_03 L_Toe3_02
planeLockWeightLeft planeAlignerLeft
R_Leg01 R_Hip
R_Leg02 R_Leg01
R_Leg03 R_Leg02
R_Foot R_Leg03
planeAlignerRight R_Foot
R_Toe1_01 R_Foot
R_Toe2_01 R_Foot
R_Toe3_01 R_Foot
planeLockWeightRight planeAlignerRight
R_Toe1_02 R_Toe1_01
R_Toe1_03 R_Toe1_02
R_Toe2_02 R_Toe2_01
R_Toe2_03 R_Toe2_02
R_Toe3_02 R_Toe3_01
R_Toe3_03 R_Toe3_02
Rear_Leg02 Rear_Leg01
Rear_Leg03 Rear_Leg02
Rear_Leg04 Rear_Leg03
Rear_Foot Rear_Leg04
planeAlignerCenter Rear_Foot
Rear_Toe1_01 Rear_Foot
Rear_Toe2_01 Rear_Foot
Rear_Toe3_01 Rear_Foot
planeLockWeightCenter planeAlignerCenter
Rear_Toe1_02 Rear_Toe1_01
Rear_Toe1_03 Rear_Toe1_02
Rear_Toe2_02 Rear_Toe2_01
Rear_Toe2_03 Rear_Toe2_02
Rear_Toe3_02 Rear_Toe3_01
Rear_Toe3_03 Rear_Toe3_02
Back_Bone Spine1
Head Spine1
Motor_Bone Back_Bone
Ping_Mechanism Back_Bone
BN_LookIK Head
bottomMouth Head
L_Mouth01 Head
L_mouthFront Head
mouthGun Head
R_Mouth01 Head
R_mouthFront Head
TopMouth Head
weapon_bone Head
[BasePosition]
#SegmentName Tx, Ty, Tz, Rx, Ry, Rz, BoneLength
Pinger_Root 0.000000 0.000000 0.000000 -90.000000 0.000000 0.000000 10.000000 
Pelvis 0.000000 0.000000 0.000000 0.000000 0.000000 0.000000 10.000000 
L_Hip 0.000000 0.000000 0.000000 0.000000 0.000000 0.000000 10.000000 
R_Hip 0.000000 0.000000 0.000000 0.000000 0.000000 0.000000 10.000000 
Rear_Leg01 0.000000 0.000000 0.000000 0.000000 0.000000 0.000000 10.000000 
Spine1 0.000000 0.000000 0.000000 0.000000 0.000000 0.000000 10.000000 
L_Leg01 0.000000 0.000000 0.000000 0.000000 0.000000 0.000000 10.000000 
L_Leg02 0.000000 0.000000 0.000000 0.000000 0.000000 0.000000 10.000000 
L_Leg03 0.000000 0.000000 0.000000 0.000000 0.000000 0.000000 10.000000 
L_Foot 0.000000 0.000000 0.000000 0.000000 0.000000 0.000000 10.000000 
L_Toe1_01 0.000000 0.000000 0.000000 0.000000 0.000000 0.000000 10.000000 
L_Toe2_01 0.000000 0.000000 0.000000 0.000000 0.000000 0.000000 10.000000 
L_Toe3_01 0.000000 0.000000 0.000000 0.000000 0.000000 0.000000 10.000000 
planeAlignerLeft 0.000000 0.000000 0.000000 0.000000 0.000000 0.000000 10.000000 
L_Toe1_02 0.000000 0.000000 0.000000 0.000000 0.000000 0.000000 10.000000 
L_Toe1_03 0.000000 0.000000 0.000000 0.000000 0.000000 0.000000 10.000000 
L_Toe2_02 0.000000 0.000000 0.000000 0.000000 0.000000 0.000000 10.000000 
L_Toe2_03 0.000000 0.000000 0.000000 0.000000 0.000000 0.000000 10.000000 
L_Toe3_02 0.000000 0.000000 0.000000 0.000000 0.000000 0.000000 10.000000 
L_Toe3_03 0.000000 0.000000 0.000000 0.000000 0.000000 0.000000 10.000000 
planeLockWeightLeft 0.000000 0.000000 0.000000 0.000000 0.000000 0.000000 10.000000 
R_Leg01 0.000000 0.000000 0.000000 0.000000 0.000000 0.000000 10.000000 
R_Leg02 0.000000 0.000000 0.000000 0.000000 0.000000 0.000000 10.000000 
R_Leg03 0.000000 0.000000 0.000000 0.000000 0.000000 0.000000 10.000000 
R_Foot 0.000000 0.000000 0.000000 0.000000 0.000000 0.000000 10.000000 
planeAlignerRight 0.000000 0.000000 0.000000 0.000000 0.000000 0.000000 10.000000 
R_Toe1_01 0.000000 0.000000 0.000000 0.000000 0.000000 0.000000 10.000000 
R_Toe2_01 0.000000 0.000000 0.000000 0.000000 0.000000 0.000000 10.000000 
R_Toe3_01 0.000000 0.000000 0.000000 0.000000 0.000000 0.000000 10.000000 
planeLockWeightRight 0.000000 0.000000 0.000000 0.000000 0.000000 0.000000 10.000000 
R_Toe1_02 0.000000 0.000000 0.000000 0.000000 0.000000 0.000000 10.000000 
R_Toe1_03 0.000000 0.000000 0.000000 0.000000 0.000000 0.000000 10.000000 
R_Toe2_02 0.000000 0.000000 0.000000 0.000000 0.000000 0.000000 10.000000 
R_Toe2_03 0.000000 0.000000 0.000000 0.000000 0.000000 0.000000 10.000000 
R_Toe3_02 0.000000 0.000000 0.000000 0.000000 0.000000 0.000000 10.000000 
R_Toe3_03 0.000000 0.000000 0.000000 0.000000 0.000000 0.000000 10.000000 
Rear_Leg02 0.000000 0.000000 0.000000 0.000000 0.000000 0.000000 10.000000 
Rear_Leg03 0.000000 0.000000 0.000000 0.000000 0.000000 0.000000 10.000000 
Rear_Leg04 0.000000 0.000000 0.000000 0.000000 0.000000 0.000000 10.000000 
Rear_Foot 0.000000 0.000000 0.000000 0.000000 0.000000 0.000000 10.000000 
planeAlignerCenter 0.000000 0.000000 0.000000 0.000000 0.000000 0.000000 10.000000 
Rear_Toe1_01 0.000000 0.000000 0.000000 0.000000 0.000000 0.000000 10.000000 
Rear_Toe2_01 0.000000 0.000000 0.000000 0.000000 0.000000 0.000000 10.000000 
Rear_Toe3_01 0.000000 0.000000 0.000000 0.000000 0.000000 0.000000 10.000000 
planeLockWeightCenter 0.000000 0.000000 0.000000 0.000000 0.000000 0.000000 10.000000 
Rear_Toe1_02 0.000000 0.000000 0.000000 0.000000 0.000000 0.000000 10.000000 
Rear_Toe1_03 0.000000 0.000000 0.000000 0.000000 0.000000 0.000000 10.000000 
Rear_Toe2_02 0.000000 0.000000 0.000000 0.000000 0.000000 0.000000 10.000000 
Rear_Toe2_03 0.000000 0.000000 0.000000 0.000000 0.000000 0.000000 10.000000 
Rear_Toe3_02 0.000000 0.000000 0.000000 0.000000 0.000000 0.000000 10.000000 
Rear_Toe3_03 0.000000 0.000000 0.000000 0.000000 0.000000 0.000000 10.000000 
Back_Bone 0.000000 0.000000 0.000000 0.000000 0.000000 0.000000 10.000000 
Head 0.000000 0.000000 0.000000 0.000000 0.000000 0.000000 10.000000 
Motor_Bone 0.000000 0.000000 0.000000 0.000000 0.000000 0.000000 10.000000 
Ping_Mechanism 0.000000 0.000000 0.000000 0.000000 0.000000 0.000000 10.000000 
BN_LookIK 0.000000 0.000000 0.000000 0.000000 0.000000 0.000000 10.000000 
bottomMouth 0.000000 0.000000 0.000000 0.000000 0.000000 0.000000 10.000000 
L_Mouth01 0.000000 0.000000 0.000000 0.000000 0.000000 0.000000 10.000000 
L_mouthFront 0.000000 0.000000 0.000000 0.000000 0.000000 0.000000 10.000000 
mouthGun 0.000000 0.000000 0.000000 0.000000 0.000000 0.000000 10.000000 
R_Mouth01 0.000000 0.000000 0.000000 0.000000 0.000000 0.000000 10.000000 
R_mouthFront 0.000000 0.000000 0.000000 0.000000 0.000000 0.000000 10.000000 
TopMouth 0.000000 0.000000 0.000000 0.000000 0.000000 0.000000 10.000000 
weapon_bone 0.000000 0.000000 0.000000 0.000000 0.000000 0.000000 10.000000 
#Beginning of Data. Separated by tabs
#Fr	Tx	Ty	Tz	Rx	Ry	Rz	SF
[Pinger_Root]
49 -6222.220215 0.000000 0.000000 -0.000075 -0.000000 -0.000020 6222.220703
50 -6351.849609 0.000000 0.000000 -0.000075 -0.000000 -0.000020 6351.849609
51 -6481.478516 0.000000 0.000000 -0.000075 -0.000000 -0.000020 6481.479004
[Pelvis]
49 -770.941833 529.738098 4962.538574 -114.136772 -70.533958 155.116119 5049.927246
50 -791.423401 501.447632 4969.189941 -109.548103 -71.272888 148.796814 5056.743164
51 -808.626770 461.693359 4980.246094 -106.971786 -71.878601 144.884628 5066.546387
[L_Hip]
49 5.766392 125.831482 872.656799 -178.250168 -81.786369 87.376007 881.701050
50 5.766392 125.831482 872.656799 -178.250168 -81.786369 87.376007 881.701050
51 5.766392 125.831482 872.656799 -178.250168 -81.786369 87.376007 881.701050
[R_Hip]
49 5.765438 125.836372 -872.654907 -1.748770 81.786041 87.376961 881.699829
50 5.765438 125.836372 -872.654907 -1.748770 81.786041 87.376961 881.699829
51 5.765438 125.836372 -872.654907 -1.748770 81.786041 87.376961 881.699829
[Rear_Leg01]
49 -192.298416 -925.602966 -0.001907 -168.056992 25.129929 -153.766342 945.367432
50 -192.298416 -925.602966 -0.001907 -166.343018 27.737797 -149.647934 945.367432
51 -192.298416 -925.602966 -0.001907 -167.596329 28.706999 -149.464615 945.367432
[Spine1]
49 290.604584 5.007505 0.000477 -26.185352 21.342176 6.742362 290.647736
50 290.604584 5.007505 0.000477 -24.524530 19.258669 7.489634 290.647736
51 290.604584 5.007505 0.000477 -22.919504 17.759487 8.361444 290.647736
[L_Leg01]
49 761.932007 -0.002384 -0.069261 58.713993 -2.802104 -54.479408 761.932068
50 761.932007 -0.002384 -0.069261 58.815907 1.002771 -60.049877 761.932068
51 761.932007 -0.002384 -0.069261 58.994816 1.718738 -63.200405 761.932068
[L_Leg02]
49 1441.140503 -0.000954 -0.000715 -1.578750 0.457892 -80.147324 1441.140503
50 1441.140503 -0.000954 -0.000715 -1.585785 0.457729 -76.008087 1441.140503
51 1441.140503 -0.000954 -0.000715 -1.574957 0.476539 -76.820122 1441.140503
[L_Leg03]
49 1686.963989 -0.000715 -0.000954 0.029424 -0.010123 101.993744 1686.963989
50 1686.963989 -0.000715 -0.000954 0.032970 -0.010283 101.270905 1686.963989
51 1686.963989 -0.000715 -0.000954 0.036518 -0.010399 100.548027 1686.963989
[L_Foot]
49 3041.570068 -30.715107 11.297464 -30.191530 9.862372 61.191120 3041.746094
50 3041.570068 -30.715107 11.297464 -28.911642 11.360095 62.485630 3041.746094
51 3041.570068 -30.715107 11.297464 -27.537565 12.881035 65.448631 3041.746094
[L_Toe1_01]
49 -188.216690 -224.732346 -21.137953 89.193130 -0.506438 -160.381485 293.899567
50 -188.216690 -224.732346 -21.137953 89.205383 -0.706436 -160.837662 293.899567
51 -188.216690 -224.732346 -21.137953 89.290794 -1.338514 -162.016937 293.899567
[L_Toe2_01]
49 200.746536 -219.926590 148.838394 -78.432335 -14.137962 -41.680050 332.896027
50 200.746536 -219.926590 148.838394 -78.335396 -14.202177 -41.975266 332.896027
51 200.746536 -219.926590 148.838394 -78.238052 -14.265880 -42.270695 332.896027
[L_Toe3_01]
49 188.832520 -219.859131 -191.078659 -106.078789 21.001497 -44.939529 347.140900
50 188.832520 -219.859131 -191.078659 -106.012360 20.507971 -44.898560 347.140900
51 188.832520 -219.859131 -191.078659 -105.810135 19.125618 -44.847546 347.140900
[planeAlignerLeft]
49 -126.832306 -599.541931 -25.156191 0.000000 -90.000000 -90.001900 613.326782
50 -118.343056 -600.040344 -21.276320 0.000000 -90.000000 -90.001900 611.969055
51 -97.110382 -601.288757 -11.572451 0.000000 -90.000000 -90.001900 609.190063
[L_Toe1_02]
49 413.761139 0.000477 0.000000 0.001387 -25.607019 0.001387 413.761139
50 413.761139 0.000477 0.000000 0.001389 -25.282644 0.001389 413.761139
51 413.761139 0.000477 0.000000 0.001392 -24.958258 0.001392 413.761139
[L_Toe1_03]
49 464.317322 0.000358 -0.000089 0.004796 61.670918 0.004796 464.317322
50 464.317322 0.000358 -0.000089 0.005104 63.412487 0.005104 464.317322
51 464.317322 0.000358 -0.000089 0.006014 67.492607 0.006014 464.317322
[L_Toe2_02]
49 342.235809 -0.000477 0.000238 0.004686 -80.616463 0.004686 342.235809
50 342.235809 -0.000477 0.000238 0.004687 -80.376984 0.004687 342.235809
51 342.235809 -0.000477 0.000238 0.004688 -80.137352 0.004688 342.235809
[L_Toe2_03]
49 420.210846 -0.000715 0.000000 179.991943 59.238224 179.999207 420.210846
50 420.210846 -0.000715 0.000000 -179.999557 60.465000 -179.995941 420.210846
51 420.210846 -0.000715 0.000000 -179.999283 63.586960 -179.995697 420.210846
[L_Toe3_02]
49 329.270111 0.000954 0.000000 0.004677 -83.740036 0.004677 329.270111
50 329.270111 0.000954 0.000000 0.003510 -83.492859 0.003510 329.270111
51 329.270111 0.000954 0.000000 0.002343 -83.245583 0.002343 329.270111
[L_Toe3_03]
49 439.137451 -0.001907 0.000954 179.991684 61.072819 179.998917 439.137451
50 439.137451 -0.001907 0.000954 179.991577 61.826401 179.998795 439.137451
51 439.137451 -0.001907 0.000954 179.991241 63.773273 179.998428 439.137451
[planeLockWeightLeft]
49 999.999695 0.098267 0.076131 -0.011826 -0.004376 0.005620 999.999695
50 999.999695 0.098267 0.076123 -0.011826 -0.004376 0.005620 999.999695
51 999.999695 0.098267 0.076115 -0.011826 -0.004376 0.005620 999.999695
[R_Leg01]
49 761.455627 -0.001907 -0.000358 120.968979 -50.381741 68.595100 761.455688
50 761.455627 -0.001907 -0.000358 115.701958 -50.537949 68.333733 761.455688
51 761.455627 -0.001907 -0.000358 109.783157 -49.295074 69.392601 761.455688
[R_Leg02]
49 1441.140625 0.000000 -0.000238 0.152208 -0.059114 -114.257042 1441.140625
50 1441.140625 0.000000 -0.000238 0.153565 -0.066212 -114.062630 1441.140625
51 1441.140625 0.000000 -0.000238 0.170263 -0.051269 -111.975166 1441.140625
[R_Leg03]
49 1686.963989 0.000954 0.001431 -0.038805 0.010617 100.567299 1686.963989
50 1686.963989 0.000954 0.001431 -0.038821 0.010560 100.399834 1686.963989
51 1686.963989 0.000954 0.001431 -0.038836 0.010503 100.232368 1686.963989
[R_Foot]
49 3041.560059 -30.531288 -11.204481 8.174364 -10.599537 63.831028 3041.734131
50 3041.560059 -30.531288 -11.204481 10.200083 -12.921518 63.448406 3041.734131
51 3041.560059 -30.531288 -11.204481 12.344067 -15.233059 62.468311 3041.734131
[planeAlignerRight]
49 -0.404968 -758.288940 -0.656128 0.000000 -89.960434 -90.005180 758.289307
50 -0.402985 -737.377197 -0.645752 0.000000 -89.960434 -90.005180 737.377563
51 -0.401001 -716.465271 -0.635376 0.000000 -89.960434 -90.005180 716.465698
[R_Toe1_01]
49 -188.383347 -224.864899 21.052242 90.903618 1.895458 -153.946808 294.101532
50 -188.383347 -224.864899 21.052242 90.844147 1.920421 -155.615753 294.101532
51 -188.383347 -224.864899 21.052242 90.783997 1.943630 -157.284042 294.101532
[R_Toe2_01]
49 200.637817 -220.002121 -148.787384 -104.143608 10.176411 -55.079041 332.857574
50 200.637817 -220.002121 -148.787384 -103.893242 10.518028 -53.691383 332.857574
51 200.637817 -220.002121 -148.787384 -103.634247 10.853575 -52.300659 332.857574
[R_Toe3_01]
49 188.606735 -220.092957 191.126343 -71.617805 -12.460231 -56.983154 347.192566
50 188.606735 -220.092957 191.126343 -71.922745 -12.908131 -55.590202 347.192566
51 188.606735 -220.092957 191.126343 -72.239342 -13.348648 -54.192314 347.192566
[planeLockWeightRight]
49 999.999695 -0.000063 0.076188 -0.011823 -0.004379 -0.000027 999.999695
50 999.999695 -0.000053 0.076182 -0.011823 -0.004379 -0.000027 999.999695
51 999.999695 -0.000042 0.076176 -0.011823 -0.004379 -0.000027 999.999695
[R_Toe1_02]
49 413.762085 0.000477 -0.000119 0.001395 -24.593676 0.001395 413.762085
50 413.762085 0.000477 -0.000119 0.001397 -24.285261 0.001397 413.762085
51 413.762085 0.000477 -0.000119 0.001400 -23.976854 0.001400 413.762085
[R_Toe1_03]
49 464.317810 0.000000 0.001088 0.006751 69.963844 0.006751 464.317810
50 464.317810 0.000000 0.001088 0.007534 72.067078 0.007534 464.317810
51 464.317810 0.000000 0.001088 0.008522 74.168961 0.008522 464.317810
[R_Toe2_02]
49 342.234741 -0.000954 0.000238 0.001187 -72.819321 0.001187 342.234741
50 342.234741 -0.000954 0.000238 0.000008 -73.572517 0.000008 342.234741
51 342.234741 -0.000954 0.000238 -0.001168 -74.325706 -0.001168 342.234741
[R_Toe2_03]
49 420.210846 0.000715 -0.000268 0.040278 86.660522 0.040278 420.210846
50 420.210846 0.000715 -0.000268 0.038119 89.078041 0.036370 420.210846
51 420.210846 0.000715 -0.000268 -179.954239 88.503410 -179.957748 420.210846
[R_Toe3_02]
49 329.270355 -0.000477 -0.000954 0.001181 -76.954498 0.001181 329.270355
50 329.270355 -0.000477 -0.000954 0.001180 -77.723686 0.001180 329.270355
51 329.270355 -0.000477 -0.000954 0.001180 -78.492821 0.001180 329.270355
[R_Toe3_03]
49 439.137939 0.000238 0.001431 0.000000 89.905128 0.003496 439.137939
50 439.137939 0.000238 0.001431 -179.970978 87.858894 -179.967484 439.137939
51 439.137939 0.000238 0.001431 -179.986694 85.624718 -179.983185 439.137939
[Rear_Leg02]
49 1162.777710 -0.029802 0.005960 -6.559970 -34.029194 -56.205383 1162.777710
50 1162.777710 -0.029802 0.005960 -4.431778 -34.095982 -54.546780 1162.777710
51 1162.777710 -0.029802 0.005960 5.090639 -33.417534 -66.950714 1162.777710
[Rear_Leg03]
49 607.192505 -0.013351 -0.073195 0.006609 -0.001641 56.099010 607.192505
50 607.192505 -0.013351 -0.073195 0.006589 -0.001721 57.482059 607.192505
51 607.192505 -0.013351 -0.073195 0.006492 -0.002057 63.371731 607.192505
[Rear_Leg04]
49 995.874512 -0.020504 -0.011921 -0.036381 -0.015697 43.321735 995.874573
50 995.874512 -0.020504 -0.011921 -0.036695 -0.014948 45.672924 995.874573
51 995.874512 -0.020504 -0.011921 -0.040271 -0.015804 56.418522 995.874573
[Rear_Foot]
49 3096.176270 -0.067472 -0.041425 -48.904003 42.304565 109.971252 3096.176270
50 3096.176270 -0.067472 -0.041425 -45.637482 40.424183 108.375443 3096.176270
51 3096.176270 -0.067472 -0.041425 -43.992100 40.460957 104.345612 3096.176270
[planeAlignerCenter]
49 -12.482259 139.629288 -765.085815 0.000009 0.000003 -179.999985 777.822876
50 -13.531931 150.582306 -766.846069 0.000009 0.000003 -179.999985 781.607971
51 -12.139309 170.477844 -766.287415 0.000009 0.000003 -179.999985 785.115540
[Rear_Toe1_01]
49 0.653352 83.966492 -371.173737 -0.719311 58.126244 89.028458 380.553192
50 0.653352 83.966492 -371.173737 0.106054 57.277866 90.050682 380.553192
51 0.653352 83.966492 -371.173737 0.110343 53.658607 90.050232 380.553192
[Rear_Toe2_01]
49 178.200760 -294.826019 -362.060547 1.513217 50.317883 -69.019196 499.765686
50 178.200760 -294.826019 -362.060547 1.669729 50.348892 -68.750099 499.765686
51 178.200760 -294.826019 -362.060547 2.671022 53.722649 -67.542091 499.765686
[Rear_Toe3_01]
49 -153.359680 -308.780914 -362.060852 -1.843470 50.313843 -113.574173 499.952881
50 -153.359680 -308.780914 -362.060852 -2.020823 50.346184 -113.876167 499.952881
51 -153.359680 -308.780914 -362.060852 -3.155207 53.707520 -115.237831 499.952881
[planeLockWeightCenter]
49 0.002384 -0.000000 0.076447 -0.011814 -0.004373 -0.000015 0.076484
50 0.000000 -0.000051 0.076421 -0.011814 -0.004373 -0.000015 0.076421
51 0.000000 -0.000102 0.076396 -0.011814 -0.004373 -0.000015 0.076396
[Rear_Toe1_02]
49 379.707825 0.194073 0.000477 -0.000767 -33.624729 0.000838 379.707855
50 379.707825 0.194073 0.000477 -0.000767 -33.624729 0.000838 379.707855
51 379.707825 0.194073 0.000477 -0.000767 -33.624729 0.000838 379.707855
[Rear_Toe1_03]
49 500.129700 0.165701 0.000119 -0.003948 58.726650 -0.000317 500.129761
50 500.129700 0.165701 0.000119 -0.004131 61.400230 -0.000523 500.129761
51 500.129700 0.165701 0.000119 0.007093 70.953949 0.007094 500.129761
[Rear_Toe2_02]
49 340.494507 0.000238 -0.000954 0.001175 -85.096474 0.001175 340.494507
50 340.494507 0.000238 -0.000954 0.001175 -85.478577 0.001175 340.494507
51 340.494507 0.000238 -0.000954 0.000000 -88.803024 0.000000 340.494507
[Rear_Toe2_03]
49 433.103577 0.000000 0.000238 179.984833 81.127594 179.984833 433.103546
50 433.103577 0.000000 0.000238 179.986572 79.973793 179.986572 433.103546
51 433.103577 0.000000 0.000238 -179.994858 70.360214 -179.998413 433.103546
[Rear_Toe3_02]
49 340.494141 -0.000358 -0.000477 0.001175 -84.963669 0.001175 340.494171
50 340.494141 -0.000358 -0.000477 0.001175 -85.350716 0.001175 340.494171
51 340.494141 -0.000358 -0.000477 0.001749 -88.704872 0.001749 340.494171
[Rear_Toe3_03]
49 433.103577 0.001431 -0.000238 -179.994064 81.433952 -179.990555 433.103546
50 433.103577 0.001431 -0.000238 -179.994949 80.303406 -179.991440 433.103546
51 433.103577 0.001431 -0.000238 -179.998337 70.699425 -179.994797 433.103546
[Back_Bone]
49 1312.175781 -701.934692 0.000954 -1.309868 3.152341 -85.176041 1488.125488
50 1312.175781 -701.934692 0.000954 -1.705185 3.121804 -84.850502 1488.125488
51 1312.175781 -701.934692 0.000954 -2.048518 2.815960 -84.352638 1488.125488
[Head]
49 1406.159424 809.709290 0.001431 -8.149653 7.328525 3.673359 1622.625488
50 1406.159424 809.709290 0.001431 -8.587946 7.435523 3.330144 1622.625488
51 1406.159424 809.709290 0.001431 -9.026977 7.539913 2.986038 1622.625488
[Motor_Bone]
49 1158.364380 -417.834747 0.000477 -1.391430 0.000038 -105.983665 1231.419434
50 1158.364380 -417.834747 0.000477 -1.019834 2.826898 -103.158165 1231.419434
51 1158.364380 -417.834747 0.000477 -0.553477 1.344020 -104.639450 1231.419434
[Ping_Mechanism]
49 1275.468018 -445.501617 -76.257164 0.000103 -0.000053 82.120995 1353.183472
50 1279.859863 -450.502838 -66.677422 0.000103 -0.000053 82.120995 1358.469727
51 1280.209595 -453.166870 -60.754097 0.000103 -0.000053 82.120995 1359.407104
[BN_LookIK]
49 193.241119 1380.371704 -0.002861 0.000000 89.965736 -31.038179 1393.832153
50 193.241119 1380.371704 -0.002861 0.000000 89.965736 -31.038179 1393.832153
51 193.241119 1380.371704 -0.002861 0.000000 89.965736 -31.038179 1393.832153
[bottomMouth]
49 -435.092926 615.759399 -0.000954 -0.000022 0.000016 73.527184 753.966492
50 -435.092926 615.759399 -0.000954 -0.000022 0.000016 73.527184 753.966492
51 -435.092926 615.759399 -0.000954 -0.000022 0.000016 73.527184 753.966492
[L_Mouth01]
49 554.440979 7.658243 838.222046 150.204178 23.759130 109.605339 1005.027161
50 554.440979 7.658243 838.222046 150.204178 23.759130 109.605339 1005.027161
51 554.440979 7.658243 838.222046 150.204178 23.759130 109.605339 1005.027161
[L_mouthFront]
49 551.629089 934.514771 339.150421 0.000081 2.804060 79.119301 1136.941284
50 551.629089 934.514771 339.150421 0.000081 2.804060 79.119301 1136.941284
51 551.629089 934.514771 339.150421 0.000081 2.804060 79.119301 1136.941284
[mouthGun]
49 55.332661 1627.420898 0.000000 0.000023 0.000009 -11.038128 1628.361328
50 55.332661 1627.420898 0.000000 0.000023 0.000009 -11.038128 1628.361328
51 55.332661 1627.420898 0.000000 0.000023 0.000009 -11.038128 1628.361328
[R_Mouth01]
49 554.442383 7.659197 -838.223938 29.795891 -23.759109 109.605331 1005.029541
50 554.442383 7.659197 -838.223938 29.795891 -23.759109 109.605331 1005.029541
51 554.442383 7.659197 -838.223938 29.795891 -23.759109 109.605331 1005.029541
[R_mouthFront]
49 551.629089 934.514282 -339.151367 0.000029 -2.803930 79.119133 1136.941162
50 551.629089 934.514282 -339.151367 0.000029 -2.803930 79.119133 1136.941162
51 551.629089 934.514282 -339.151367 0.000029 -2.803930 79.119133 1136.941162
[TopMouth]
49 461.269867 -56.106091 -0.008583 -0.000059 -0.000268 92.025169 464.669525
50 461.269867 -56.106091 -0.008583 -0.000059 -0.000268 92.025169 464.669525
51 461.269867 -56.106091 -0.008583 -0.000059 -0.000268 92.025169 464.669525
[weapon_bone]
49 -987.239868 1448.372803 0.001431 0.000000 89.965736 -31.038221 1752.833740
50 -987.239868 1448.372803 0.001431 0.000000 89.965736 -31.038221 1752.833740
51 -987.239868 1448.372803 0.001431 0.000000 89.965736 -31.038221 1752.833740
